# xmcd
#
# Track frame offsets: 
# 150
# 36702
# 67015
# 97910
# 148850
# 166787
# 190240
#
# Disc length: 3183 seconds
# Submitted via: tkcNetwork 1.0
# Revision: 0
# Processed by: cddbd v1.5.1PL0 Copyright (c) Steve Scherf et al.
#
DISCID=630c6d07
DTITLE=Atlantis - Atlantis
DYEAR=1900
DGENRE=
TTITLE0=Trail of Doubts
TTITLE1=Deus Ex Machina
TTITLE2=The Olde King
TTITLE3=Beyond Your Horizon
TTITLE4=One For The Money
TTITLE5=Little Man
TTITLE6=Run From The Past
EXTD=
EXTT0=
EXTT1=
EXTT2=
EXTT3=
EXTT4=
EXTT5=
EXTT6=
PLAYORDER=
